<svg xmlns="http://www.w3.org/2000/svg" id="Layer_1" width="360" height="360" viewBox="0 0 360 360"><style>.st0{fill:#fff}</style><path d="M32.2 174.1l-2.6 1.5c-.5-.8-.9-1.4-1.4-1.6-.5-.3-1-.4-1.7-.4-.9 0-1.6.2-2.2.7-.6.5-.9 1.1-.9 1.8 0 1 .8 1.8 2.3 2.5l2.1.9c1.7.7 2.9 1.5 3.7 2.5.8 1 1.2 2.2 1.2 3.6 0 1.9-.6 3.5-1.9 4.8-1.3 1.3-2.9 1.9-4.8 1.9-1.8 0-3.3-.5-4.5-1.6-1.2-1.1-1.9-2.6-2.2-4.5l3.2-.7c.1 1.2.4 2.1.8 2.5.6.9 1.6 1.4 2.8 1.4 1 0 1.8-.3 2.4-1 .6-.7 1-1.5 1-2.5 0-.4-.1-.8-.2-1.1-.1-.3-.3-.6-.5-.9-.2-.3-.5-.6-.9-.8-.4-.2-.8-.5-1.4-.7l-2-.8c-2.9-1.2-4.3-3-4.3-5.3 0-1.6.6-2.9 1.8-3.9 1.2-1.1 2.7-1.6 4.5-1.6 2.5-.2 4.3 1 5.7 3.3zm40.7-3.1v12.6c0 1.8.3 3.1.9 3.9.9 1.2 2.1 1.8 3.7 1.8s2.8-.6 3.7-1.8c.6-.8.9-2.1.9-3.9V171h3.2v13.4c0 2.2-.7 4-2.1 5.4-1.5 1.6-3.4 2.4-5.7 2.4s-4.1-.8-5.7-2.4c-1.4-1.4-2.1-3.2-2.1-5.4V171h3.2zm50.6 20.9v-22.3l15.2 15.9V171h3.2v22.2l-15.2-15.9v14.6h-3.2zm56.6 0v-22.3l15.2 15.9V171h3.2v22.2l-15.2-15.9v14.6h-3.2zm59.8-20.9v20.9h-3.2V171h3.2zm49.8 3h-8.4v5h8.1v3h-8.1v7h8.4v3h-11.5v-21h11.5v3zm41 14.9h10v3h-15.2l10.3-17.9h-8.6v-3H341l-10.3 17.9zm-188.4-85.2l-19 19c1.3 2.5 2.9 5 4.6 7.3l25.3-25.3c-3.7-.5-7.4-.8-10.9-1zm55.4 4.8l-11.9 11.9c2.3.5 3.1 3.1 3.3 4.5.2 1.1.5 2.2.8 3.2l22.6-22.6c-5.3.9-10.5 2-14.8 3zm33.3-4.8l-35.5 35.5c2.7 3.4 5.1 4.6 5.1 4.6.8.6 1.7 1 2.5 1.5l40.1-40.1c-3.2-1.2-7.5-1.6-12.2-1.5zm-15.7 1.4l-24.8 24.8c1.2 3.3 2.6 5.9 4 7.9l34.1-34.1c-4.2.2-8.8.7-13.3 1.4zm-38.5 4.2c-2.7-.7-6-1.4-9.5-2.1l-31.9 31.9c2.3 2.4 4.9 4.3 7.8 5.8l35.3-35.3c-.6 0-1.1-.1-1.7-.3zm17.4 0c-4.5 1.1-9.2 1.3-13.8.7l-35.7 35.7c3 1.3 6.2 2.2 9.5 2.4h1.6l38.8-38.8h-.4zm-39-4.3l-26.4 26.4c1.8 2.4 3.7 4.6 5.4 6.5l31.1-31.1c-3.1-.6-6.6-1.3-10.1-1.8zm61.3 43h.4c7.4-.4 14.3-3.9 19.3-9.4 5.6-6.1 14.1-16.6 14.3-24.6l-34 34zm-46.1-4.3s6.5-3.1 10.5-14.9c.4-1.2.8-2.5 1-3.8 0-.3.1-.6.2-.9L158.2 148c3.9-.3 8.1-1.6 12.2-4.3zm-46.7-36.6c-4.2 3.3-3.7 8.6-1.2 14.1l17.5-17.5c-6.9-.1-12.9.7-16.3 3.4zm123.6 0c-.7-.5-1.5-1-2.4-1.4l-40.2 40.2c3.3 1.4 6.5 2 9.5 2.1l36.1-36.1c-.4-1.8-1.3-3.5-3-4.8z"/><path d="M182.1 124.1l3.6-3.6c-.1 0-.2-.1-.3-.1-1.9.2-2.8 2.2-3.3 3.7zm16.5-16.5l-1.2-1.2-2.8 2.8c1-.2 2-.5 3-.7l1-.9z" class="st0"/></svg>