<svg id="Layer_1" data-name="Layer 1" xmlns="http://www.w3.org/2000/svg" width="5in" height="5in" viewBox="0 0 360 360"><title>Artboard 2</title><path d="M180,.4A179.6,179.6,0,1,0,359.6,180,179.6,179.6,0,0,0,180,.4ZM309.2,135.6V133h12l-9,15.7H321v2.6H307.7l9-15.7Zm-43-2.6h10.1v2.6h-7.4V140h7.2v2.6h-7.2v6.1h7.4v2.6H266.2Zm-36.4,0h2.8v18.3h-2.8Zm-49.6-1.2,13.3,13.9V133h2.8v19.4l-13.4-13.9v12.8h-2.7Zm-49.7,0,13.3,13.9V133h2.8v19.4l-13.3-13.9v12.8h-2.8ZM83.4,133h2.7v11a6.2,6.2,0,0,0,.8,3.5,3.8,3.8,0,0,0,3.2,1.6,3.8,3.8,0,0,0,3.3-1.6,6.2,6.2,0,0,0,.8-3.5V133h2.7v11.8a6.8,6.8,0,0,1-1.8,4.8,6.9,6.9,0,0,1-9.9,0,6.8,6.8,0,0,1-1.8-4.8ZM47.9,145l-.4-.8-.8-.7-1.2-.6-1.8-.7c-2.5-1.1-3.8-2.7-3.8-4.7a4.4,4.4,0,0,1,1.6-3.4,5.6,5.6,0,0,1,4-1.4,5.5,5.5,0,0,1,4.9,3l-2.2,1.4a7.6,7.6,0,0,0-1.2-1.5,3.5,3.5,0,0,0-1.6-.3,3.1,3.1,0,0,0-1.9.6,2,2,0,0,0-.7,1.6c0,.9.6,1.6,2,2.2l1.8.7a7.5,7.5,0,0,1,3.2,2.2,5.2,5.2,0,0,1,1.1,3.2,5.8,5.8,0,0,1-5.9,5.9,6.1,6.1,0,0,1-4-1.4,7.2,7.2,0,0,1-1.9-4l2.8-.6a6.3,6.3,0,0,0,.7,2.2,2.9,2.9,0,0,0,2.5,1.2,2.7,2.7,0,0,0,2.1-.9,2.9,2.9,0,0,0,.9-2.2A3.6,3.6,0,0,0,47.9,145Zm-9.8,28.7c7.6-6,21.4-8.1,37.5-7.9L35.3,206.1C29.6,193.5,28.5,181.4,38.1,173.7Zm-1,36L80.8,166c8,.3,16.5,1.2,25,2.3L47.6,226.5A130.1,130.1,0,0,1,37.1,209.7Zm12.8,19.8L110.5,169c7.9,1.2,15.9,2.6,23.3,4.1L62.4,244.5C58.5,240.2,54.1,235.1,49.9,229.5Zm15,17.8L138.2,174c8.1,1.6,15.5,3.3,21.8,4.9l3.7.8L82.8,260.6A70.1,70.1,0,0,1,64.9,247.3Zm43.2,20.4a59.8,59.8,0,0,1-21.7-5.4l81.9-81.9a84.7,84.7,0,0,0,31.7-1.5l1-.3-89.2,89.2Zm63.6-52.9a69.3,69.3,0,0,1-2.2,8.7c-9.1,27.2-24.1,34.3-24.1,34.3a58.4,58.4,0,0,1-28.1,9.8l54.9-54.9C172,213.4,171.9,214.2,171.7,214.8Zm16.6,0c-.6-3.3-2.5-9.4-7.7-10.5L207.9,177c10.1-2.3,21.9-4.8,34.3-6.9l-52.1,52.1A66.4,66.4,0,0,1,188.3,214.8Zm3.2,11.3,56.9-56.9a280.8,280.8,0,0,1,30.7-3.2l-78.3,78.3A78.4,78.4,0,0,1,191.5,226.1Zm23.1,31.7s-5.3-2.6-11.6-10.5l81.5-81.5c10.8-.1,20.5.8,28.1,3.2l-92.2,92.2C218.5,260.2,216.6,259.1,214.6,257.8Zm9.4,5.1,92.4-92.4a26.5,26.5,0,0,1,5.5,3.2,18.1,18.1,0,0,1,6.8,11.2l-82.9,82.9A59.5,59.5,0,0,1,224,262.9Zm72.1-16.7c-11.5,12.6-27.3,20.6-44.2,21.5h-.8l77.9-78C328.4,208,309,232.2,296.1,246.2Z"/></svg>